HIERARCHY
ROOT hip
{
	OFFSET 0.000000 0.000000 0.000000
	CHANNELS 6 Xposition Yposition Zposition Xrotation Zrotation Yrotation 
	JOINT abdomen
	{
		OFFSET 0.000000 3.422050 0.000000
		CHANNELS 3 Xrotation Zrotation Yrotation 
		JOINT chest
		{
			OFFSET 0.000000 8.486693 -0.684411
			CHANNELS 3 Xrotation Zrotation Yrotation 
			JOINT neck
			{
				OFFSET 0.000000 10.266162 -0.273764
				CHANNELS 3 Xrotation Zrotation Yrotation 
				JOINT head
				{
					OFFSET 0.000000 3.148285 0.000000
					CHANNELS 3 Xrotation Zrotation Yrotation 
					End Site
					{
						OFFSET 0.000000 3.148289 0.000000
					}
				}
			}
			JOINT lCollar
			{
				OFFSET 3.422053 6.707223 -0.821293
				CHANNELS 3 Yrotation Zrotation Xrotation 
				JOINT lShldr
				{
					OFFSET 3.285171 0.000000 0.000000
					CHANNELS 3 Zrotation Yrotation Xrotation 
					JOINT lForeArm
					{
						OFFSET 10.129278 0.000000 0.000000
						CHANNELS 3 Yrotation Zrotation Xrotation 
						JOINT lHand
						{
							OFFSET 8.486692 0.000000 0.000000
							CHANNELS 3 Zrotation Yrotation Xrotation 
							End Site
							{
								OFFSET 4.106464 0.000000 0.000000
							}
						}
					}
				}
			}
			JOINT rCollar
			{
				OFFSET -3.558935 6.707223 -0.821293
				CHANNELS 3 Yrotation Zrotation Xrotation 
				JOINT rShldr
				{
					OFFSET -3.148289 0.000000 0.000000
					CHANNELS 3 Zrotation Yrotation Xrotation 
					JOINT rForeArm
					{
						OFFSET -10.266159 0.000000 0.000000
						CHANNELS 3 Yrotation Zrotation Xrotation 
						JOINT rHand
						{
							OFFSET -8.349810 0.000000 0.000000
							CHANNELS 3 Zrotation Yrotation Xrotation 
							End Site
							{
								OFFSET -4.106464 0.000000 0.000000
							}
						}
					}
				}
			}
		}
	}
	JOINT lThigh
	{
		OFFSET 5.338403 -1.642589 1.368821
		CHANNELS 3 Xrotation Zrotation Yrotation 
		JOINT lShin
		{
			OFFSET -2.053232 -20.121670 0.000000
			CHANNELS 3 Xrotation Zrotation Yrotation 
			JOINT lFoot
			{
				OFFSET 0.000000 -19.300380 -1.231939
				CHANNELS 3 Xrotation Yrotation Zrotation 
				End Site
				{
					OFFSET 0.000000 -2.463878 4.653993
				}
			}
		}
	}
	JOINT rThigh
	{
		OFFSET -5.338403 -1.642589 1.368821
		CHANNELS 3 Xrotation Zrotation Yrotation 
		JOINT rShin
		{
			OFFSET 2.053232 -20.121670 0.000000
			CHANNELS 3 Xrotation Zrotation Yrotation 
			JOINT rFoot
			{
				OFFSET 0.000000 -19.300380 -1.231939
				CHANNELS 3 Xrotation Yrotation Zrotation 
				End Site
				{
					OFFSET 0.000000 -2.463878 4.653993
				}
			}
		}
	}
}
MOTION
Frames: 18
Frame Time: 0.033264
0.000000 43.528500 0.000000 0.000000 0.000000 0.000000 0.000000 0.000000 0.000000 0.000000 0.000000 0.000000 0.000000 0.000000 0.000000 0.000000 0.000000 0.000000 0.000000 0.000000 0.000000 0.000000 0.000000 0.000000 0.000000 0.000000 0.000000 0.000000 0.000000 0.000000 0.000000 0.000000 0.000000 0.000000 0.000000 0.000000 0.000000 0.000000 0.000000 0.000000 0.000000 0.000000 0.000000 0.000000 0.000000 0.000000 0.000000 0.000000 0.000000 0.000000 0.000000 0.000000 0.000000 0.000000 0.000000 0.000000 0.000000 0.000000 0.000000 0.000000 
0.820027 22.060768 2.003482 40.996567 0.000000 0.000000 9.695637 0.554968 -0.274072 -19.306629 0.769568 -1.388487 -0.187091 0.000000 0.000000 -0.428397 0.000000 0.000000 28.005238 13.472454 6.634529 -85.109810 -19.675550 33.870445 -52.843426 -25.602983 -7.004999 9.616656 5.353185 -14.337324 -28.784620 -14.322392 5.913947 85.069611 19.665098 33.877033 53.044018 25.632195 -7.099154 -8.962327 -5.566268 -14.009437 -40.329060 23.798332 -0.938293 88.021912 1.122892 -0.570943 60.063538 5.471357 -23.776930 -40.332794 -23.816639 0.930619 88.021980 -1.142594 0.576221 60.071869 -5.469064 23.756445 
0.820027 22.007704 2.185042 39.238270 0.000000 0.000000 10.195178 0.554906 -0.274154 -17.441118 0.769585 -1.388412 -0.152612 -0.039043 0.002094 -0.846719 0.000000 0.000000 27.901474 13.045864 6.044342 -85.109810 -19.675550 33.870445 -52.147800 -25.354666 -6.710929 9.490608 5.044033 -14.512376 -28.665911 -13.878283 5.346773 85.069611 19.665098 33.877037 52.355507 25.387625 -6.807267 -8.860000 -5.254214 -14.193058 -37.868095 24.241348 -0.488502 87.379494 1.082556 -0.578726 59.949097 5.511523 -23.363586 -37.869949 -24.259806 0.478987 87.379547 -1.103453 0.584832 59.956036 -5.510174 23.344332 
0.820027 21.954638 2.366602 37.473202 0.000000 0.000000 10.694872 0.554845 -0.274237 -15.567513 0.769599 -1.388337 -0.118133 -0.078088 0.004164 -1.265521 0.000000 0.000000 27.793306 12.620043 5.453952 -85.109818 -19.675552 33.870445 -51.454643 -25.103008 -6.420654 9.365544 4.734447 -14.686695 -28.542828 -13.435032 4.779327 85.069611 19.665098 33.877033 51.669388 25.139771 -6.519081 -8.758711 -4.941783 -14.376062 -35.377441 24.669182 -0.013247 86.736771 1.042114 -0.586059 59.834328 5.550876 -22.950037 -35.377365 -24.687725 0.001844 86.736809 -1.064199 0.593007 59.839870 -5.550463 22.932014 
0.820027 21.901573 2.548162 35.702164 0.000000 0.000000 11.194700 0.554784 -0.274321 -13.686752 0.769610 -1.388260 -0.083654 -0.117136 0.006211 -1.684794 0.000000 0.000000 27.680765 12.195069 4.863345 -85.109818 -19.675549 33.870445 -50.763988 -24.848076 -6.134215 9.241460 4.424438 -14.860284 -28.415388 -12.992717 4.211591 85.069611 19.665098 33.877037 50.985733 24.888700 -6.234637 -8.658452 -4.628985 -14.558451 -32.858967 25.080240 0.486840 86.093773 1.001575 -0.592941 59.719246 5.589407 -22.536308 -32.856903 -25.098776 -0.500175 86.093796 -1.024837 0.600744 59.723385 -5.589928 22.519510 
0.820027 21.848507 2.729721 33.925995 0.000000 0.000000 11.694638 0.554724 -0.274405 -11.799826 0.769619 -1.388182 -0.049175 -0.156186 0.008234 -2.104526 0.000000 0.000000 27.563869 11.771029 4.272504 -85.109810 -19.675545 33.870438 -50.075867 -24.589926 -5.851647 9.118356 4.114018 -15.033153 -28.283617 -12.551427 3.643543 85.069611 19.665098 33.877033 50.304573 24.634481 -5.953977 -8.559227 -4.315833 -14.740242 -30.314747 25.472942 1.010941 85.450546 0.960945 -0.599370 59.603870 5.627119 -22.122412 -30.310625 -25.491379 -1.026246 85.450546 -0.985376 0.608041 59.606606 -5.628561 22.106838 
0.820027 21.795443 2.911281 32.145515 0.000000 0.000000 12.194674 0.554664 -0.274489 -9.907724 0.769626 -1.388105 -0.014696 -0.195239 0.010234 -2.524708 0.000000 0.000000 27.442648 11.348010 3.681420 -85.109810 -19.675550 33.870445 -49.390331 -24.328629 -5.572985 8.996220 3.803196 -15.205306 -28.147541 -12.111239 3.075168 85.069611 19.665098 33.877033 49.625916 24.377157 -5.677127 -8.461027 -4.002336 -14.921432 -27.747034 25.845776 1.558050 84.807098 0.920233 -0.605344 59.488216 5.664005 -21.708361 -27.740816 -25.864023 -1.575355 84.807098 -0.945824 0.614897 59.489513 -5.666361 21.694002 
0.820027 21.742376 3.092840 30.361565 0.000000 0.000000 12.694790 0.554606 -0.274574 -8.011464 0.769630 -1.388027 0.019783 -0.234295 0.012210 -2.945328 0.000000 0.000000 27.317114 10.926090 3.090075 -85.109810 -19.675550 33.870445 -48.707428 -24.064247 -5.298267 8.875057 3.491986 -15.376750 -28.007177 -11.672241 2.506447 85.069611 19.665098 33.877033 48.949841 24.116808 -5.404125 -8.363848 -3.688504 -15.102034 -25.158266 26.197302 2.126978 84.163528 0.879446 -0.610862 59.372238 5.700060 -21.294151 -25.149920 -26.215267 -2.146305 84.163528 -0.906187 0.621310 59.372139 -5.703324 21.281017 
0.820027 21.689312 3.274400 28.575018 0.000000 0.000000 13.194960 0.554548 -0.274660 -6.112075 0.769631 -1.387948 0.054261 -0.273353 0.014164 -3.366376 0.000000 0.000000 27.187294 10.505354 2.498458 -85.109810 -19.675550 33.870445 -48.027176 -23.796850 -5.027522 8.754857 3.180395 -15.547491 -27.862556 -11.234514 1.937363 85.069611 19.665102 33.877037 48.276363 23.853489 -5.135002 -8.267689 -3.374349 -15.282051 -22.551088 26.526186 2.716352 83.519844 0.838592 -0.615922 59.256016 5.735285 -20.879822 -22.540579 -26.543764 -2.737713 83.519814 -0.866472 0.627278 59.254475 -5.739450 20.867899 
0.820027 21.636246 3.455960 26.786728 0.000000 0.000000 13.695167 0.554491 -0.274746 -4.210592 0.769630 -1.387870 0.088740 -0.312414 0.016093 -3.787842 0.000000 0.000000 27.053225 10.085885 1.906560 -85.109810 -19.675552 33.870445 -47.349606 -23.526499 -4.760777 8.635615 2.868436 -15.717534 -27.713709 -10.798141 1.367903 85.069611 19.665098 33.877033 47.605534 23.587276 -4.869786 -8.172540 -3.059881 -15.461493 -19.928274 26.831175 3.324627 82.876091 0.797679 -0.620523 59.139507 5.769671 -20.465366 -19.915590 -26.848276 -3.348026 82.876053 -0.826688 0.632800 59.136536 -5.774729 20.454657 
0.820027 21.583181 3.637519 24.997566 0.000000 0.000000 14.195393 0.554435 -0.274833 -2.308060 0.769626 -1.387792 0.123218 -0.351477 0.017999 -4.209715 0.000000 0.000000 26.914928 9.667766 1.314368 -85.109810 -19.675550 33.870445 -46.674763 -23.253265 -4.498056 8.517329 2.556119 -15.886887 -27.560663 -10.363206 0.798051 85.069611 19.665098 33.877037 46.937340 23.318214 -4.608498 -8.078407 -2.745112 -15.640367 -17.292780 27.111168 3.950092 82.232300 0.756714 -0.624665 59.022751 5.803224 -20.050810 -17.277897 -27.127682 -3.975523 82.232262 -0.786843 0.637875 59.018341 -5.809161 20.041309 
0.820027 21.530117 3.819079 23.208405 0.000000 0.000000 14.695619 0.554379 -0.274920 -0.405527 0.769619 -1.387713 0.157697 -0.390543 0.019882 -4.631984 0.000000 0.000000 26.772417 9.251075 0.721874 -85.109810 -19.675550 33.870445 -46.002659 -22.977213 -4.239386 8.399993 2.243454 -16.055552 -27.403435 -9.929788 0.227794 85.069611 19.665100 33.877033 46.271851 23.046387 -4.351167 -7.985278 -2.430050 -15.818674 -14.647662 27.365177 4.590892 81.588501 0.715705 -0.628345 58.905750 5.835930 -19.636160 -14.630598 -27.381012 -4.618338 81.588455 -0.746942 0.642502 58.899891 -5.842749 19.627865 
0.820027 21.477051 4.000639 21.420116 0.000000 0.000000 15.195830 0.554325 -0.275007 1.495955 0.769610 -1.387636 0.192176 -0.429611 0.021742 -5.054636 0.000000 0.000000 26.625738 8.835898 0.129069 -85.109810 -19.675550 33.870445 -45.333332 -22.698414 -3.984791 8.283609 1.930454 -16.223547 -27.242058 -9.497970 -0.342881 85.069611 19.665098 33.877033 45.609058 22.771847 -4.097811 -7.893155 -2.114708 -15.996431 -11.996122 27.592394 5.245041 80.944778 0.674660 -0.631565 58.788525 5.867796 -19.221437 -11.976879 -27.607433 -5.274471 80.944717 -0.706994 0.646680 58.781197 -5.875478 19.214336 
0.820027 21.423986 4.182199 19.633562 0.000000 0.000000 15.695998 0.554270 -0.275095 3.395346 0.769599 -1.387558 0.226654 -0.468681 0.023577 -5.477663 0.000000 0.000000 26.474913 8.422316 -0.464055 -85.109810 -19.675550 33.870445 -44.666817 -22.416946 -3.734287 8.168164 1.617127 -16.390865 -27.076553 -9.067832 -0.913985 85.069611 19.665098 33.877033 44.949036 22.494682 -3.848454 -7.802030 -1.799095 -16.173637 -9.341413 27.792130 5.910439 80.301140 0.633586 -0.634323 58.671032 5.898812 -18.806635 -9.320024 -27.806297 -5.941818 80.301064 -0.667008 0.650408 58.662270 -5.907357 18.800743 
0.820027 21.370920 4.363758 17.849619 0.000000 0.000000 16.196112 0.554217 -0.275184 5.291605 0.769585 -1.387481 0.261133 -0.507754 0.025390 -5.901052 0.000000 0.000000 26.319963 8.010406 -1.057503 -85.109810 -19.675550 33.870445 -44.003109 -22.132864 -3.487890 8.053658 1.303486 -16.557516 -26.906973 -8.639457 -1.485528 85.069611 19.665098 33.877033 44.291748 22.214933 -3.603107 -7.711904 -1.483223 -16.350300 -6.686873 27.963921 6.584910 79.657631 0.592492 -0.636619 58.553356 5.928981 -18.391794 -6.663368 -27.977098 -6.618186 79.657547 -0.626989 0.653686 58.543110 -5.938378 18.387091 
0.820027 21.317856 4.545318 16.069139 0.000000 0.000000 16.696146 0.554165 -0.275273 7.183707 0.769568 -1.387405 0.295612 -0.546829 0.027179 -6.324794 0.000000 0.000000 26.160933 7.600250 -1.651283 -85.109810 -19.675552 33.870445 -43.342239 -21.846249 -3.245619 7.940091 0.989539 -16.723513 -26.733328 -8.212923 -2.057520 85.069618 19.665102 33.877037 43.637257 21.932693 -3.361791 -7.622771 -1.167101 -16.526430 -4.035842 28.107399 7.266203 79.014275 0.551385 -0.638453 58.435452 5.958297 -17.976906 -4.010268 -28.119514 -7.301321 79.014198 -0.586947 0.656514 58.423733 -5.968536 17.973392 
0.820027 21.264790 4.726877 14.292964 0.000000 0.000000 17.196093 0.554113 -0.275362 9.070633 0.769549 -1.387330 0.330091 -0.585907 0.028945 -6.748874 0.000000 0.000000 25.997850 7.191931 -2.245399 -85.109810 -19.675550 33.870445 -42.684227 -21.557165 -3.007482 7.827451 0.675299 -16.888849 -26.555647 -7.788310 -2.629968 85.069611 19.665102 33.877037 42.985558 21.648014 -3.124515 -7.534626 -0.850741 -16.702030 -1.391680 28.222443 7.952043 78.371132 0.510273 -0.639824 58.317352 5.986760 -17.561996 -1.364094 -28.233398 -7.988934 78.371063 -0.546888 0.658892 58.304153 -5.997835 17.559669 
0.820027 21.211725 4.908437 12.521934 0.000000 0.000000 17.695917 0.554062 -0.275452 10.951392 0.769528 -1.387255 0.364570 -0.624986 0.030687 -7.173283 0.000000 0.000000 25.830738 6.785520 -2.839854 -85.109810 -19.675550 33.870445 -42.029099 -21.265694 -2.773497 7.715740 0.360776 -17.053547 -26.373976 -7.365696 -3.202881 85.069611 19.665096 33.877033 42.336670 21.360966 -2.891290 -7.447473 -0.534152 -16.877115 1.242298 28.309061 8.640146 77.728264 0.469164 -0.640734 58.199051 6.014367 -17.147068 1.271831 -28.318773 -8.678731 77.728165 -0.506820 0.660818 58.184376 -6.026268 17.145927 
